<?xml version="1.0" encoding="UTF-8" standalone="no" ?>
<!DOCTYPE svg PUBLIC "-//W3C//DTD SVG 1.1//EN" "http://www.w3.org/Graphics/SVG/1.1/DTD/svg11.dtd">
<svg xmlns="http://www.w3.org/2000/svg" xmlns:xlink="http://www.w3.org/1999/xlink" version="1.1" width="569.0817578125" height="243.1228" xml:space="preserve">
<desc>Created with Fabric.js 1.6.0-rc.1</desc>
<defs></defs>
<g style="stroke: none; stroke-width: 1; stroke-dasharray: none; stroke-linecap: butt; stroke-linejoin: miter; stroke-miterlimit: 10; fill: none; fill-rule: nonzero; opacity: 1;" transform="translate(10 10) scale(0.4 0.4)" >
  <rect x="306.74" y="406.86" rx="0" ry="0" width="17.65" height="64.2" style="stroke: none; stroke-width: 1; stroke-dasharray: none; stroke-linecap: butt; stroke-linejoin: miter; stroke-miterlimit: 10; fill: #ff7903; fill-rule: nonzero; opacity: 1;" transform=" matrix(1 0 0 1 0 0) "/>
  <rect x="187.57" y="406.86" rx="0" ry="0" width="17.65" height="64.2" style="stroke: none; stroke-width: 1; stroke-dasharray: none; stroke-linecap: butt; stroke-linejoin: miter; stroke-miterlimit: 10; fill: #ff7903; fill-rule: nonzero; opacity: 1;" transform=" matrix(1 0 0 1 0 0) "/>
  <rect x="175.74" y="398.06" rx="0" ry="0" width="160.51" height="17.65" style="stroke: none; stroke-width: 1; stroke-dasharray: none; stroke-linecap: butt; stroke-linejoin: miter; stroke-miterlimit: 10; fill: #ff7903; fill-rule: nonzero; opacity: 1;" transform=" matrix(1 0 0 1 0 0) "/>
  <rect x="175.74" y="430.16" rx="0" ry="0" width="160.51" height="17.65" style="stroke: none; stroke-width: 1; stroke-dasharray: none; stroke-linecap: butt; stroke-linejoin: miter; stroke-miterlimit: 10; fill: #ff7903; fill-rule: nonzero; opacity: 1;" transform=" matrix(1 0 0 1 0 0) "/>
  <rect x="175.74" y="462.26" rx="0" ry="0" width="160.51" height="17.65" style="stroke: none; stroke-width: 1; stroke-dasharray: none; stroke-linecap: butt; stroke-linejoin: miter; stroke-miterlimit: 10; fill: #ff7903; fill-rule: nonzero; opacity: 1;" transform=" matrix(1 0 0 1 0 0) "/>
  <rect x="220.31" y="494.34" rx="0" ry="0" width="71.33" height="17.66" style="stroke: none; stroke-width: 1; stroke-dasharray: none; stroke-linecap: butt; stroke-linejoin: miter; stroke-miterlimit: 10; fill: #ff7903; fill-rule: nonzero; opacity: 1;" transform=" matrix(1 0 0 1 0 0) "/>
  <path d="M 324.382 415.7 H 187.556 v -8.827 c 0 -30.802 -13.094 -60.411 -35.924 -81.226 l -1.129 -0.988 c -0.991 -0.865 -1.958 -1.718 -2.926 -2.516 l -0.333 -0.289 c -33.426 -30.566 -52.595 -73.992 -52.595 -119.148 c 0 -88.965 72.374 -161.339 161.334 -161.339 c 88.973 0 161.352 72.374 161.352 161.339 c 0 45.128 -19.185 88.553 -52.639 119.148 l -0.302 0.266 c -1.014 0.847 -2.033 1.761 -3.059 2.685 l -1.014 0.911 c -22.817 20.7 -35.935 50.301 -35.935 81.16 v 8.824 H 324.382 z M 204.902 398.046 h 102.136 c 2.281 -32.602 17.106 -63.357 41.469 -85.463 l 1.029 -0.922 c 1.134 -1.019 2.263 -2.022 3.382 -2.967 c 29.716 -27.251 46.758 -65.874 46.758 -105.992 c 0 -79.227 -64.463 -143.685 -143.695 -143.685 c -79.227 0 -143.677 64.458 -143.677 143.685 c 0 40.143 17.014 78.756 46.697 105.976 c 1.039 0.865 2.081 1.777 3.141 2.706 l 1.234 1.078 C 187.819 334.75 202.621 365.509 204.902 398.046 z" style="stroke: none; stroke-width: 1; stroke-dasharray: none; stroke-linecap: butt; stroke-linejoin: miter; stroke-miterlimit: 10; fill: #ff7903; fill-rule: nonzero; opacity: 1;" transform=" matrix(1 0 0 1 0 0) " stroke-linecap="round" />
  <rect x="247.16" y="364.5" rx="0" ry="0" width="17.65" height="42.37" style="stroke: none; stroke-width: 1; stroke-dasharray: none; stroke-linecap: butt; stroke-linejoin: miter; stroke-miterlimit: 10; fill: #ff7903; fill-rule: nonzero; opacity: 1;" transform=" matrix(1 0 0 1 0 0) "/>
  <path d="M 313.843 293.946 c 2.885 1.224 6.075 1.879 9.393 1.879 c 13.663 0 24.709 -11.052 24.709 -24.694 c 0 -1.894 -0.218 -3.727 -0.609 -5.45 c 5.97 -0.246 11.901 -2.673 16.456 -7.227 c 9.152 -9.132 9.638 -23.616 1.444 -33.334 c 8.463 -3.907 14.331 -12.48 14.331 -22.42 c 0 -9.951 -5.868 -18.511 -14.331 -22.426 c 8.192 -9.7 7.708 -24.197 -1.444 -33.324 c -4.552 -4.564 -10.486 -6.976 -16.456 -7.204 c 0.392 -1.764 0.609 -3.599 0.609 -5.489 c 0 -13.642 -11.046 -24.714 -24.709 -24.714 c -3.318 0 -6.508 0.694 -9.393 1.887 c -2.253 -11.369 -12.234 -19.95 -24.251 -19.95 c -13.652 0 -24.709 11.059 -24.709 24.694 v 173.038 c 0 13.652 11.057 24.694 24.709 24.694 C 301.606 313.909 311.6 305.318 313.843 293.946 z" style="stroke: none; stroke-width: 1; stroke-dasharray: none; stroke-linecap: butt; stroke-linejoin: miter; stroke-miterlimit: 10; fill: #d2fa32; fill-rule: nonzero; opacity: 0;" transform=" matrix(1 0 0 1 0 0) " stroke-linecap="round" />
  <path d="M 198.144 293.946 c -2.906 1.224 -6.085 1.879 -9.398 1.879 c -13.658 0 -24.712 -11.052 -24.712 -24.694 c 0 -1.894 0.212 -3.727 0.602 -5.45 c -5.96 -0.246 -11.873 -2.673 -16.453 -7.227 c -9.116 -9.132 -9.608 -23.616 -1.439 -33.334 c -8.471 -3.907 -14.346 -12.48 -14.346 -22.42 c 0 -9.951 5.878 -18.511 14.346 -22.426 c -8.169 -9.7 -7.677 -24.197 1.439 -33.324 c 4.582 -4.564 10.493 -6.976 16.453 -7.204 c -0.389 -1.764 -0.602 -3.599 -0.602 -5.489 c 0 -13.642 11.054 -24.714 24.712 -24.714 c 3.31 0 6.492 0.694 9.398 1.887 c 2.214 -11.369 12.221 -19.95 24.261 -19.95 c 13.652 0 24.681 11.059 24.681 24.694 v 173.038 c 0 13.652 -11.028 24.694 -24.681 24.694 C 210.365 313.909 200.358 305.318 198.144 293.946 z" style="stroke: none; stroke-width: 1; stroke-dasharray: none; stroke-linecap: butt; stroke-linejoin: miter; stroke-miterlimit: 10; fill: #d2fa32; fill-rule: nonzero; opacity: 0;" transform=" matrix(1 0 0 1 0 0) " stroke-linecap="round" />
  <path d="M 354.424 379.906 l -8.589 -15.424 c 4.964 -2.76 9.851 -5.786 14.531 -8.991 l 9.976 14.569 C 365.209 373.573 359.856 376.888 354.424 379.906 z M 157.235 379.763 c -5.417 -3.028 -10.77 -6.349 -15.892 -9.869 l 9.994 -14.556 c 4.68 3.213 9.564 6.244 14.513 9.011 L 157.235 379.763 z M 385.275 358.794 L 374.013 345.2 c 4.362 -3.617 8.622 -7.488 12.641 -11.492 l 12.465 12.508 C 394.713 350.602 390.057 354.836 385.275 358.794 z M 126.425 358.597 c -4.767 -3.965 -9.416 -8.207 -13.824 -12.618 l 12.495 -12.475 c 4.022 4.024 8.266 7.898 12.618 11.515 L 126.425 358.597 z M 411.758 332.41 l -13.563 -11.31 c 3.633 -4.349 7.107 -8.929 10.335 -13.609 l 14.538 10.017 C 419.538 322.634 415.731 327.646 411.758 332.41 z M 100.001 332.147 c -3.965 -4.774 -7.764 -9.797 -11.282 -14.925 l 14.561 -9.989 c 3.21 4.682 6.676 9.272 10.301 13.632 L 100.001 332.147 z M 432.957 301.621 l -15.404 -8.635 c 2.775 -4.948 5.345 -10.081 7.644 -15.27 l 16.141 7.171 C 438.817 290.565 435.998 296.197 432.957 301.621 z M 78.863 301.319 c -3.031 -5.425 -5.837 -11.059 -8.358 -16.755 l 16.146 -7.14 c 2.299 5.197 4.861 10.34 7.626 15.283 L 78.863 301.319 z M 448.125 267.443 l -16.73 -5.635 c 1.807 -5.361 3.382 -10.885 4.687 -16.417 l 17.185 4.052 C 451.832 255.51 450.101 261.562 448.125 267.443 z M 63.736 267.117 c -1.974 -5.898 -3.699 -11.95 -5.123 -18.007 l 17.185 -4.037 c 1.3 5.527 2.872 11.052 4.675 16.425 L 63.736 267.117 z M 456.716 231.05 l -17.48 -2.45 c 0.786 -5.624 1.321 -11.346 1.59 -17.014 l 17.636 0.842 C 458.171 218.631 457.582 224.898 456.716 231.05 z M 55.188 230.707 c -0.85 -6.154 -1.423 -12.421 -1.702 -18.629 l 17.633 -0.796 c 0.259 5.67 0.781 11.392 1.559 17.011 L 55.188 230.707 z M 440.865 194.49 c -0.241 -5.658 -0.755 -11.382 -1.526 -17.014 l 17.498 -2.386 c 0.84 6.17 1.403 12.439 1.672 18.637 L 440.865 194.49 z M 71.129 194.186 l -17.638 -0.814 c 0.294 -6.213 0.865 -12.48 1.713 -18.621 l 17.49 2.414 C 71.915 182.776 71.39 188.502 71.129 194.186 z M 436.252 160.683 c -1.285 -5.532 -2.847 -11.059 -4.644 -16.433 l 16.755 -5.588 c 1.964 5.893 3.676 11.96 5.084 18.02 L 436.252 160.683 z M 75.809 160.371 l -17.193 -4.022 c 1.416 -6.044 3.133 -12.104 5.105 -18.004 l 16.748 5.591 C 78.663 149.322 77.102 154.851 75.809 160.371 z M 425.461 128.314 c -2.286 -5.181 -4.838 -10.335 -7.598 -15.299 l 15.437 -8.573 c 3.026 5.445 5.824 11.085 8.32 16.763 L 425.461 128.314 z M 86.625 128.015 l -16.156 -7.135 c 2.514 -5.686 5.317 -11.325 8.343 -16.75 l 15.424 8.591 C 91.479 117.677 88.911 122.821 86.625 128.015 z M 408.891 98.47 c -3.2 -4.685 -6.659 -9.277 -10.276 -13.65 l 13.601 -11.256 c 3.965 4.79 7.747 9.823 11.254 14.953 L 408.891 98.47 z M 103.229 98.206 L 88.67 88.222 c 3.517 -5.128 7.311 -10.15 11.282 -14.927 l 13.581 11.279 C 109.903 88.936 106.447 93.524 103.229 98.206 z M 387.133 72.163 c -4.004 -4.022 -8.246 -7.908 -12.595 -11.548 l 11.318 -13.548 c 4.764 3.981 9.405 8.236 13.793 12.641 L 387.133 72.163 z M 125.045 71.948 l -12.49 -12.483 c 4.393 -4.393 9.042 -8.637 13.824 -12.613 l 11.292 13.573 C 133.299 64.056 129.057 67.932 125.045 71.948 z M 360.926 50.273 c -4.672 -3.22 -9.549 -6.264 -14.49 -9.037 l 8.637 -15.398 c 5.417 3.039 10.762 6.372 15.882 9.907 L 360.926 50.273 z M 151.293 50.106 l -9.997 -14.548 c 5.115 -3.52 10.468 -6.845 15.89 -9.879 l 8.617 15.411 C 160.852 43.855 155.968 46.893 151.293 50.106 z M 331.174 33.574 c -5.179 -2.304 -10.537 -4.398 -15.905 -6.208 l 5.645 -16.727 c 5.891 1.987 11.758 4.278 17.441 6.81 L 331.174 33.574 z M 181.084 33.446 l -7.158 -16.143 c 5.691 -2.516 11.558 -4.797 17.446 -6.781 l 5.627 16.735 C 191.631 29.066 186.276 31.144 181.084 33.446 z M 298.852 22.658 c -5.519 -1.308 -11.167 -2.371 -16.783 -3.162 l 2.458 -17.485 c 6.154 0.868 12.342 2.035 18.394 3.466 L 298.852 22.658 z M 213.424 22.568 l -4.05 -17.185 c 6.052 -1.423 12.237 -2.58 18.391 -3.443 l 2.442 17.49 C 224.586 20.216 218.939 21.27 213.424 22.568 z M 265.075 17.881 l -0.778 -0.036 c -5.734 -0.259 -11.446 -0.253 -17.083 0.01 l -0.809 -17.638 c 6.162 -0.284 12.403 -0.292 18.706 -0.008 l 0.786 0.041 L 265.075 17.881 z" style="stroke: none; stroke-width: 1; stroke-dasharray: none; stroke-linecap: butt; stroke-linejoin: miter; stroke-miterlimit: 10; fill: #ff7903; fill-rule: nonzero; opacity: 1;" transform=" matrix(1 0 0 1 0 0) " stroke-linecap="round" />
</g>
<g style="stroke: none; stroke-width: 1; stroke-dasharray: none; stroke-linecap: butt; stroke-linejoin: miter; stroke-miterlimit: 10; fill: none; fill-rule: nonzero; opacity: 1;" transform="translate(65.39999999999998 61.829999999999984) scale(0.18 0.18)" >
  <polyline points="152.42,46.29 438.89,46.29 502.51,149.56 256,475.53 9.49,149.59 73.11,46.29 88.6,46.29 " style="stroke: none; stroke-width: 1; stroke-dasharray: none; stroke-linecap: butt; stroke-linejoin: miter; stroke-miterlimit: 10; fill: #000000; fill-rule: nonzero; opacity: 1;" transform="  matrix(1 0 0 1 0 0) "/>
  <polygon points="176.48,46.29 73.11,46.29 9.49,149.56 256,467.58 112.87,149.59 " style="stroke: none; stroke-width: 1; stroke-dasharray: none; stroke-linecap: butt; stroke-linejoin: miter; stroke-miterlimit: 10; fill: #ff7903; fill-rule: nonzero; opacity: 1;" transform="  matrix(1 0 0 1 0 0) "/>
  <polyline points="256,475.48 399.13,149.45 335.52,46.08 256,46.08 256,475.48 " style="stroke: none; stroke-width: 1; stroke-dasharray: none; stroke-linecap: butt; stroke-linejoin: miter; stroke-miterlimit: 10; fill: #ff7903; fill-rule: nonzero; opacity: 1;" transform="  matrix(1 0 0 1 0 0) "/>
  <polygon points="350.06,138.21 338.81,126.96 327.57,138.21 316.32,126.96 305.08,138.21 316.32,149.45 305.08,160.7 316.32,171.94 327.57,160.7 338.81,171.94 350.06,160.7 338.81,149.45 " style="stroke: none; stroke-width: 1; stroke-dasharray: none; stroke-linecap: butt; stroke-linejoin: miter; stroke-miterlimit: 10; fill: #FFFFFF; fill-rule: nonzero; opacity: 1;" transform="  matrix(1 0 0 1 0 0) "/>
  <polygon points="132.06,23.59 120.82,34.83 109.57,23.59 98.33,34.83 109.57,46.08 98.33,57.32 109.57,68.57 120.82,57.32 132.06,68.57 143.31,57.32 132.06,46.08 143.31,34.83 " style="stroke: none; stroke-width: 1; stroke-dasharray: none; stroke-linecap: butt; stroke-linejoin: miter; stroke-miterlimit: 10; fill: #FFFFFF; fill-rule: nonzero; opacity: 1;" transform="  matrix(1 0 0 1 0 0) "/>
  <path d="M 443.283 37.92 H 152.419 v 15.694 h 10.087 l -54.085 87.887 H 96.966 v 15.694 h 10.665 L 228.732 426.31 L 25.328 157.195 h 55.943 v -15.694 H 23.47 l 54.023 -87.887 h 11.102 V 37.92 H 68.719 L 0 149.714 l 256 338.7 l 256 -338.66 L 443.283 37.92 z M 488.509 141.501 h -42.087 v 15.694 H 486.7 l -203.439 269.13 l 121.108 -269.13 h 26.359 v -15.694 h -27.149 l -54.085 -87.887 h 85.011 L 488.509 141.501 z M 263.324 141.501 V 53.614 h 67.496 l 54.084 87.887 h -25.323 v 15.694 h 27.348 L 263.324 431.873 V 157.195 h 32.435 v -15.694 H 263.324 z M 181.18 53.614 h 66.45 v 87.887 H 127.095 L 181.18 53.614 z M 247.63 157.195 v 272.353 L 125.071 157.195 H 247.63 z" style="stroke: none; stroke-width: 1; stroke-dasharray: none; stroke-linecap: butt; stroke-linejoin: miter; stroke-miterlimit: 10; fill: rgb(0,0,0); fill-rule: nonzero; opacity: 1;" transform=" matrix(1 0 0 1 0 0) " stroke-linecap="round" />
  <polygon points="231.94,236.71 216.24,236.71 216.24,188.58 200.55,188.58 200.55,172.89 231.94,172.89 " style="stroke: none; stroke-width: 1; stroke-dasharray: none; stroke-linecap: butt; stroke-linejoin: miter; stroke-miterlimit: 10; fill: #FFFFFF; fill-rule: nonzero; opacity: 1;" transform="  matrix(1 0 0 1 0 0) "/>
  <rect x="216.25" y="252.4" rx="0" ry="0" width="15.69" height="32.44" style="stroke: none; stroke-width: 1; stroke-dasharray: none; stroke-linecap: butt; stroke-linejoin: miter; stroke-miterlimit: 10; fill: #FFFFFF; fill-rule: nonzero; opacity: 1;" transform=" matrix(1 0 0 1 0 0) "/>
  <rect x="216.25" y="300.53" rx="0" ry="0" width="15.69" height="15.69" style="stroke: none; stroke-width: 1; stroke-dasharray: none; stroke-linecap: butt; stroke-linejoin: miter; stroke-miterlimit: 10; fill: #FFFFFF; fill-rule: nonzero; opacity: 1;" transform=" matrix(1 0 0 1 0 0) "/>
</g>
  <g transform="translate(337.33 126.31) scale(3.75 3.27)">
   <text font-family="undefined" font-size="40" font-weight="bold" style="stroke: none; stroke-width: 1; stroke-dasharray: none; stroke-linecap: butt; stroke-linejoin: miter; stroke-miterlimit: 10; fill: #000000; fill-rule: nonzero; opacity: 1;" ><tspan x="-37.61" y="8.98" style="stroke: none; stroke-width: 0; stroke-dasharray: none; stroke-linecap: butt; stroke-linejoin: miter; stroke-miterlimit: 4; fill: #000000; fill-rule: ; opacity: 1;">l</tspan><tspan x="-17.18" y="8.98" style="stroke: none; stroke-width: 0; stroke-dasharray: none; stroke-linecap: butt; stroke-linejoin: miter; stroke-miterlimit: 4; fill: #000000; fill-rule: ; opacity: 1;">u</tspan><tspan x="10.46" y="8.98" style="stroke: none; stroke-width: 0; stroke-dasharray: none; stroke-linecap: butt; stroke-linejoin: miter; stroke-miterlimit: 4; fill: #000000; fill-rule: ; opacity: 1;">k</tspan></text>
 </g>
  <g transform="translate(516.27 126.4) scale(4.03 4.15)">
   <text font-family="ADAMCG PRO" font-size="40" font-weight="bold" style="stroke: none; stroke-width: 1; stroke-dasharray: none; stroke-linecap: butt; stroke-linejoin: miter; stroke-miterlimit: 10; fill: #ff7903; fill-rule: nonzero; opacity: 1;" ><tspan x="-11.12" y="8.98" style="stroke: none; stroke-width: 0; stroke-dasharray: none; stroke-linecap: butt; stroke-linejoin: miter; stroke-miterlimit: 4; fill: #ff7903; fill-rule: ; opacity: 1;">u</tspan></text>
 </g>
  <g transform="translate(372.16 189.08) scale(1.02 0.7)">
   <text font-family="Choda Chado" font-size="40" font-weight="normal" style="stroke: none; stroke-width: 1; stroke-dasharray: none; stroke-linecap: butt; stroke-linejoin: miter; stroke-miterlimit: 10; fill: #000000; fill-rule: nonzero; opacity: 1;" ><tspan x="-167.06" y="8.98" style="stroke: none; stroke-width: 0; stroke-dasharray: none; stroke-linecap: butt; stroke-linejoin: miter; stroke-miterlimit: 4; fill: #000000; fill-rule: ; opacity: 1;">e</tspan><tspan x="-146.46" y="8.98" style="stroke: none; stroke-width: 0; stroke-dasharray: none; stroke-linecap: butt; stroke-linejoin: miter; stroke-miterlimit: 4; fill: #000000; fill-rule: ; opacity: 1;">n</tspan><tspan x="-122.3" y="8.98" style="stroke: none; stroke-width: 0; stroke-dasharray: none; stroke-linecap: butt; stroke-linejoin: miter; stroke-miterlimit: 4; fill: #000000; fill-rule: ; opacity: 1;">j</tspan><tspan x="-111.46" y="8.98" style="stroke: none; stroke-width: 0; stroke-dasharray: none; stroke-linecap: butt; stroke-linejoin: miter; stroke-miterlimit: 4; fill: #000000; fill-rule: ; opacity: 1;">o</tspan><tspan x="-88.86" y="8.98" style="stroke: none; stroke-width: 0; stroke-dasharray: none; stroke-linecap: butt; stroke-linejoin: miter; stroke-miterlimit: 4; fill: #000000; fill-rule: ; opacity: 1;">y</tspan><tspan x="-64.7" y="8.98" style="stroke: none; stroke-width: 0; stroke-dasharray: none; stroke-linecap: butt; stroke-linejoin: miter; stroke-miterlimit: 4; fill: #000000; fill-rule: ; opacity: 1;"> </tspan><tspan x="-54.7" y="8.98" style="stroke: none; stroke-width: 0; stroke-dasharray: none; stroke-linecap: butt; stroke-linejoin: miter; stroke-miterlimit: 4; fill: #000000; fill-rule: ; opacity: 1;">t</tspan><tspan x="-37.78" y="8.98" style="stroke: none; stroke-width: 0; stroke-dasharray: none; stroke-linecap: butt; stroke-linejoin: miter; stroke-miterlimit: 4; fill: #000000; fill-rule: ; opacity: 1;">e</tspan><tspan x="-17.18" y="8.98" style="stroke: none; stroke-width: 0; stroke-dasharray: none; stroke-linecap: butt; stroke-linejoin: miter; stroke-miterlimit: 4; fill: #000000; fill-rule: ; opacity: 1;">c</tspan><tspan x="3.18" y="8.98" style="stroke: none; stroke-width: 0; stroke-dasharray: none; stroke-linecap: butt; stroke-linejoin: miter; stroke-miterlimit: 4; fill: #000000; fill-rule: ; opacity: 1;">h</tspan><tspan x="27.34" y="8.98" style="stroke: none; stroke-width: 0; stroke-dasharray: none; stroke-linecap: butt; stroke-linejoin: miter; stroke-miterlimit: 4; fill: #000000; fill-rule: ; opacity: 1;"> </tspan><tspan x="37.34" y="8.98" style="stroke: none; stroke-width: 0; stroke-dasharray: none; stroke-linecap: butt; stroke-linejoin: miter; stroke-miterlimit: 4; fill: #000000; fill-rule: ; opacity: 1;">f</tspan><tspan x="53.86" y="8.98" style="stroke: none; stroke-width: 0; stroke-dasharray: none; stroke-linecap: butt; stroke-linejoin: miter; stroke-miterlimit: 4; fill: #000000; fill-rule: ; opacity: 1;">u</tspan><tspan x="73.86" y="8.98" style="stroke: none; stroke-width: 0; stroke-dasharray: none; stroke-linecap: butt; stroke-linejoin: miter; stroke-miterlimit: 4; fill: #000000; fill-rule: ; opacity: 1;">l</tspan><tspan x="89.1" y="8.98" style="stroke: none; stroke-width: 0; stroke-dasharray: none; stroke-linecap: butt; stroke-linejoin: miter; stroke-miterlimit: 4; fill: #000000; fill-rule: ; opacity: 1;">l</tspan><tspan x="104.34" y="8.98" style="stroke: none; stroke-width: 0; stroke-dasharray: none; stroke-linecap: butt; stroke-linejoin: miter; stroke-miterlimit: 4; fill: #000000; fill-rule: ; opacity: 1;">e</tspan><tspan x="124.94" y="8.98" style="stroke: none; stroke-width: 0; stroke-dasharray: none; stroke-linecap: butt; stroke-linejoin: miter; stroke-miterlimit: 4; fill: #000000; fill-rule: ; opacity: 1;">s</tspan><tspan x="150.14" y="8.98" style="stroke: none; stroke-width: 0; stroke-dasharray: none; stroke-linecap: butt; stroke-linejoin: miter; stroke-miterlimit: 4; fill: #000000; fill-rule: ; opacity: 1;">t</tspan></text>
 </g>
</svg>